<svg xmlns="http://www.w3.org/2000/svg" width="60.32" height="13.313" viewBox="0 0 60.32 13.313">
  <defs>
    <style>
      .cls-1 {
        fill: #fff;
        fill-rule: evenodd;
      }
    </style>
  </defs>
  <path id="VOICE" class="cls-1" d="M1392.98,31.227l-2.44.01-2.7,8.613-0.37,1.718-0.4-1.715-2.75-8.59-2.47.011,4.47,12.39,2.3-.01Zm15.13,6.14c-0.02-4.012-2.6-6.6-6.25-6.586s-6.2,2.627-6.18,6.639c0.02,3.995,2.56,6.6,6.23,6.586S1408.12,41.361,1408.11,37.367Zm-2.42.01c0.02,2.822-1.54,4.562-3.79,4.572-2.14.009-3.79-1.616-3.81-4.539-0.01-2.941,1.65-4.546,3.78-4.555C1404.09,32.845,1405.68,34.555,1405.69,37.377Zm8.21,6.169-0.06-12.409-2.29.01,0.05,12.409Zm14.87-4.245-2.43.01a2.443,2.443,0,0,1-.78,1.669,3.216,3.216,0,0,1-2.25.928c-1.91.008-3.48-1.6-3.49-4.507-0.01-3.111,1.77-4.682,3.7-4.69a2.686,2.686,0,0,1,2.8,2.283l2.43-.01c-0.21-1.971-1.75-4.31-5.29-4.3-4.42.019-6.08,3.477-6.07,6.757,0.01,3.4,1.85,6.486,5.96,6.468A5.106,5.106,0,0,0,1428.77,39.3Zm13.38,4.125-0.01-1.938-7.38.031-0.01-3.672,6.56-.028-0.01-1.785-6.56.028-0.01-3.077,7.1-.03-0.01-1.938-9.38.04,0.05,12.409Z" transform="translate(-1381.84 -30.688)"/>
</svg>
