<svg xmlns="http://www.w3.org/2000/svg" width="117.406" height="13.719" viewBox="0 0 117.406 13.719">
  <defs>
    <style>
      .cls-1 {
        fill: #333;
        fill-rule: evenodd;
      }
    </style>
  </defs>
  <path id="TECHNIQUE" class="cls-1" d="M857.477,33.342V31.4H846.343v1.938h4.42V43.813h2.295V33.342h4.419Zm12.852,10.471V41.875h-7.377V38.2h6.561V36.418h-6.561V33.342h7.105V31.4h-9.383V43.813h9.655Zm14.586-4.182h-2.431A2.438,2.438,0,0,1,881.7,41.3a3.23,3.23,0,0,1-2.26.918c-1.9,0-3.468-1.615-3.468-4.521,0-3.111,1.785-4.675,3.723-4.675a2.687,2.687,0,0,1,2.787,2.295h2.431c-0.2-1.972-1.734-4.317-5.269-4.317-4.42,0-6.1,3.451-6.1,6.731,0,3.4,1.819,6.493,5.933,6.493A5.109,5.109,0,0,0,884.915,39.631Zm14.042,4.182V31.4h-2.295v4.828H891V31.4h-2.295V43.813H891V38.169h5.66v5.644h2.295Zm14.6,0V31.4h-2.21v7.173l0.238,2.771-0.935-2.04-4.895-7.9H903.31V43.813h2.21V36.639l-0.238-2.771,0.934,2.04,4.9,7.9h2.448Zm6.375,0V31.4h-2.294V43.813h2.294Zm15.894-6.2c0-3.995-2.55-6.612-6.221-6.612-3.655,0-6.239,2.6-6.222,6.612,0,3.995,2.55,6.612,6.222,6.612a6.085,6.085,0,0,0,3.5-.986l1.513,1.479,1.19-1.309-1.394-1.36A6.781,6.781,0,0,0,935.829,37.608Zm-2.414,0a5.229,5.229,0,0,1-.68,2.788l-1.308-1.275-1.19,1.326,1.258,1.207a3.174,3.174,0,0,1-1.887.51c-2.21,0-3.791-1.7-3.791-4.556s1.6-4.538,3.791-4.538C931.852,33.07,933.415,34.787,933.415,37.608Zm16.405,1.309V31.4h-2.3v7.785c0,1.921-.986,2.958-2.855,2.958-1.6,0-2.8-.816-2.8-2.958V31.4H939.57v7.513c0,3.366,1.836,5.3,5.168,5.3C947.406,44.221,949.82,42.844,949.82,38.917Zm13.923,4.9V41.875h-7.377V38.2h6.561V36.418h-6.561V33.342h7.105V31.4h-9.383V43.813h9.655Z" transform="translate(-846.344 -31)"/>
</svg>
