<svg xmlns="http://www.w3.org/2000/svg" width="50.68" height="12.531" viewBox="0 0 50.68 12.531">
  <defs>
    <style>
      .cls-1 {
        fill: #333;
        fill-rule: evenodd;
      }
    </style>
  </defs>
  <path id="PLAN" class="cls-1" d="M1161.86,35.372a3.9,3.9,0,0,0-4.24-3.915l-5.71.016,0.03,12.409,2.3-.006-0.02-4.419,3.42-.009A4.007,4.007,0,0,0,1161.86,35.372Zm-2.41-.01a1.964,1.964,0,0,1-2.15,2.148l-3.08.009-0.01-4.114,3.07-.008C1158.49,33.392,1159.44,33.866,1159.45,35.361Zm14.93,8.458V41.882l-6.89.019-0.03-10.471-2.29.006,0.03,12.409Zm14.54-.04-4.8-12.4-2.6.007-4.72,12.422,2.53-.007,0.91-2.671,5.22-.014,0.92,2.666Zm-4.13-4.578-3.88.011,1.64-4.781,0.29-1.089,0.27,1.087Zm17.79,4.541-0.03-12.409-2.21.006,0.02,7.173,0.24,2.77-0.94-2.037-4.91-7.891-2.45.007,0.03,12.409,2.21-.006-0.02-7.173-0.24-2.77,0.94,2.037,4.92,7.891Z" transform="translate(-1151.91 -31.344)"/>
</svg>
