<svg xmlns="http://www.w3.org/2000/svg" width="140.906" height="13.219" viewBox="0 0 140.906 13.219">
  <defs>
    <style>
      .cls-1 {
        fill: #fff;
        fill-rule: evenodd;
      }
    </style>
  </defs>
  <path id="_4_STRENGTHS" data-name="3 STRENGTHS" class="cls-1" d="M664.733,41.161V39.512h-1.666V31.4h-2.516l-4.9,7.972v1.785h5.167v2.652h2.244V41.161h1.666Zm-3.825-7.887L660.823,34.4v5.116h-3.348L657,39.631l0.476-.578,3.093-5.031Zm24.157,6.952a3.519,3.519,0,0,0-3.111-3.366l-3.23-.714c-1.326-.289-1.751-0.85-1.751-1.564,0-1.615,2.312-1.649,2.72-1.649,0.629,0,2.618.1,2.7,1.972h2.3a3.878,3.878,0,0,0-1.224-2.686A5.558,5.558,0,0,0,679.727,31c-2.431,0-5,1.037-5,3.706,0,2.363,1.733,3.264,3.331,3.621l2.992,0.663c1.122,0.255,1.666.595,1.666,1.5,0,1.751-2.465,1.819-3.043,1.819-0.918,0-2.737-.221-2.839-2.21h-2.294c0.187,3.553,3.212,4.131,5.337,4.131C683.161,44.221,685.065,42.5,685.065,40.226Zm13.65-6.884V31.4H687.582v1.938H692V43.813h2.3V33.342h4.419Zm13.328,10.471a1.8,1.8,0,0,1-.8-1.8V40.753c0-2.329-1.172-2.686-2.379-2.856a3.009,3.009,0,0,0,1.938-1,3.2,3.2,0,0,0,.764-2.125c0-1.938-1.512-3.366-3.824-3.366H701.9V43.813h2.3V38.951h3.179c1.326,0,1.6,1.156,1.6,2.04v1.5a1.427,1.427,0,0,0,.408,1.326h2.668Zm-2.923-8.737a1.815,1.815,0,0,1-2.057,1.938H704.19V33.342h3.247A1.569,1.569,0,0,1,709.12,35.076Zm15.792,8.737V41.875h-7.377V38.2H724.1V36.418h-6.562V33.342h7.105V31.4h-9.383V43.813h9.655Zm14.025,0V31.4h-2.209v7.173l0.238,2.771-0.935-2.04-4.9-7.9h-2.448V43.813h2.21V36.639l-0.238-2.771,0.935,2.04,4.9,7.9h2.447Zm15.793,0V37.149h-5.439v1.938h3.28a3.177,3.177,0,0,1-.969,2.159,3.683,3.683,0,0,1-2.566,1c-1.632,0-3.842-.986-3.842-4.692,0-2.448,1.241-4.538,3.808-4.538a2.913,2.913,0,0,1,3.093,2.244h2.448a3.784,3.784,0,0,0-1.156-2.686A6.167,6.167,0,0,0,749.019,31c-5.219,0-6.29,4.454-6.29,6.782,0,3.485,2.125,6.442,5.865,6.442,1.9,0,3.62-.748,4.266-2.567l0.051,0.85,0.2,1.309h1.615Zm14.178-10.471V31.4H757.774v1.938h4.42V43.813h2.294V33.342h4.42ZM782.44,43.813V31.4h-2.3v4.828h-5.66V31.4H772.19V43.813h2.295V38.169h5.66v5.644h2.3Zm14.11-3.587a3.519,3.519,0,0,0-3.111-3.366l-3.23-.714c-1.326-.289-1.751-0.85-1.751-1.564,0-1.615,2.312-1.649,2.72-1.649,0.629,0,2.618.1,2.7,1.972h2.3a3.878,3.878,0,0,0-1.224-2.686A5.558,5.558,0,0,0,791.212,31c-2.431,0-5,1.037-5,3.706,0,2.363,1.734,3.264,3.331,3.621l2.992,0.663c1.122,0.255,1.666.595,1.666,1.5,0,1.751-2.465,1.819-3.043,1.819-0.918,0-2.737-.221-2.838-2.21h-2.295c0.187,3.553,3.212,4.131,5.337,4.131C794.646,44.221,796.55,42.5,796.55,40.226Z" transform="translate(-655.656 -31)"/>
</svg>
