<svg xmlns="http://www.w3.org/2000/svg" width="72.85" height="13.219" viewBox="0 0 72.85 13.219">
  <defs>
    <style>
      .cls-1 {
        fill: #333;
        fill-rule: evenodd;
      }
    </style>
  </defs>
  <path id="WORKS" class="cls-1" d="M1035.92,31.4h-2.51l-2.21,8.363-0.26,1.53-0.17-1.564-1.68-8.329h-2.45l-1.68,8.329-0.17,1.564-0.27-1.53-2.2-8.363h-2.51l3.81,12.409h2.31l1.7-8.329,0.24-1.734,0.23,1.734,1.7,8.329h2.32Zm15.29,6.2c0-4.012-2.57-6.612-6.23-6.612s-6.2,2.6-6.2,6.612c0,3.995,2.53,6.612,6.2,6.612S1051.21,41.6,1051.21,37.608Zm-2.42,0c0,2.822-1.56,4.556-3.81,4.556-2.14,0-3.79-1.632-3.79-4.556,0-2.941,1.67-4.538,3.79-4.538C1047.21,33.07,1048.79,34.787,1048.79,37.608Zm16.2,6.2a1.805,1.805,0,0,1-.8-1.8V40.753c0-2.329-1.17-2.686-2.38-2.856a2.984,2.984,0,0,0,1.94-1,3.16,3.16,0,0,0,.77-2.125c0-1.938-1.52-3.366-3.83-3.366h-5.84V43.813h2.29V38.951h3.18c1.32,0,1.6,1.156,1.6,2.04v1.5a1.443,1.443,0,0,0,.4,1.326h2.67Zm-2.92-8.737a1.815,1.815,0,0,1-2.06,1.938h-2.87V33.342h3.25A1.567,1.567,0,0,1,1062.07,35.076Zm17.34,8.737-6-7.19,5.83-5.218h-3.2l-5.45,5.27V31.4h-2.3V43.813h2.3V39.121L1071.84,38l4.7,5.813h2.87Zm13.24-3.587a3.519,3.519,0,0,0-3.11-3.366l-3.23-.714c-1.32-.289-1.75-0.85-1.75-1.564,0-1.615,2.31-1.649,2.72-1.649,0.63,0,2.62.1,2.7,1.972h2.3a3.864,3.864,0,0,0-1.23-2.686A5.54,5.54,0,0,0,1087.31,31c-2.43,0-4.99,1.037-4.99,3.706,0,2.363,1.73,3.264,3.33,3.621l2.99,0.663c1.12,0.255,1.67.595,1.67,1.5,0,1.751-2.47,1.819-3.05,1.819-0.91,0-2.73-.221-2.84-2.21h-2.29c0.19,3.553,3.21,4.131,5.34,4.131C1090.75,44.221,1092.65,42.5,1092.65,40.226Z" transform="translate(-1019.81 -31)"/>
</svg>
