<svg xmlns="http://www.w3.org/2000/svg" width="55.66" height="13.219" viewBox="0 0 55.66 13.219">
  <defs>
    <style>
      .cls-1 {
        fill: #333;
        fill-rule: evenodd;
      }
    </style>
  </defs>
  <path id="FLOW" class="cls-1" d="M1272.64,33.622l-0.01-1.938-8.8.037,0.05,12.409,2.29-.01-0.02-5.32,5.9-.025-0.01-1.938-5.9.025-0.01-3.213Zm12.74,10.417V42.1l-6.89.029-0.04-10.471-2.3.01,0.05,12.409Zm15.14-6.269c-0.02-4.012-2.59-6.6-6.25-6.586s-6.19,2.627-6.18,6.639c0.02,3.995,2.57,6.6,6.24,6.586S1300.54,41.764,1300.52,37.77Zm-2.41.01c0.01,2.822-1.55,4.562-3.79,4.572-2.14.009-3.8-1.616-3.81-4.539-0.01-2.941,1.64-4.546,3.77-4.555C1296.51,33.248,1298.09,34.958,1298.11,37.78Zm21.36-6.3-2.52.011-2.17,8.372-0.25,1.514-0.18-1.546-1.72-8.322-2.45.011-1.64,8.336-0.17,1.548L1308.1,39.9l-2.23-8.354-2.52.011,3.86,12.392,2.31-.01,1.67-8.336,0.23-1.718,0.24,1.716,1.74,8.322,2.31-.01Z" transform="translate(-1263.81 -31.188)"/>
</svg>
