<svg
 xmlns="http://www.w3.org/2000/svg"
 xmlns:xlink="http://www.w3.org/1999/xlink"
 width="20px" height="20px">
<path fill-rule="evenodd"  fill="rgb(255, 255, 255)"
 d="M10.000,20.000 C4.486,20.000 0.000,15.514 0.000,10.000 C0.000,4.486 4.486,0.000 10.000,0.000 C15.514,0.000 20.000,4.486 20.000,10.000 C20.000,15.514 15.514,20.000 10.000,20.000 ZM10.000,2.143 C5.668,2.143 2.143,5.668 2.143,10.000 C2.143,14.332 5.668,17.857 10.000,17.857 C14.332,17.857 17.857,14.332 17.857,10.000 C17.857,5.668 14.332,2.143 10.000,2.143 ZM7.721,15.731 C7.436,15.731 7.167,15.620 6.964,15.418 C6.761,15.215 6.651,14.946 6.651,14.660 C6.651,14.373 6.761,14.104 6.964,13.902 L10.867,10.000 L6.964,6.098 C6.761,5.896 6.651,5.626 6.651,5.341 C6.651,5.054 6.761,4.785 6.964,4.582 C7.167,4.380 7.436,4.269 7.721,4.269 C8.008,4.269 8.277,4.380 8.479,4.582 L13.038,9.140 C13.263,9.368 13.369,9.677 13.335,10.000 C13.369,10.323 13.263,10.633 13.039,10.858 L8.479,15.417 C8.277,15.620 8.008,15.731 7.721,15.731 Z"/>
</svg>
