<svg xmlns="http://www.w3.org/2000/svg" viewBox="0 0 87.45 60.43"><defs><style>.cls-1{fill:#fff;}</style></defs><title>アセット 7</title><g id="レイヤー_2" data-name="レイヤー 2"><g id="レイヤー_1-2" data-name="レイヤー 1"><path class="cls-1" d="M23.57,42H8.75A8.76,8.76,0,0,1,0,33.22V8.74A8.75,8.75,0,0,1,8.75,0H55.2a8.75,8.75,0,0,1,8.74,8.74V19.55a1.75,1.75,0,0,1-3.5,0V8.74A5.25,5.25,0,0,0,55.2,3.5H8.75A5.25,5.25,0,0,0,3.5,8.74V33.22a5.26,5.26,0,0,0,5.25,5.25H23.57a1.75,1.75,0,0,1,0,3.5"/><path class="cls-1" d="M62.19,14.49H1.75a1.75,1.75,0,0,1,0-3.5H62.19a1.75,1.75,0,0,1,0,3.5"/><path class="cls-1" d="M78.71,60.43H32.25a8.75,8.75,0,0,1-8.74-8.74V27.22a8.75,8.75,0,0,1,8.74-8.75H78.71a8.75,8.75,0,0,1,8.74,8.75V51.69a8.75,8.75,0,0,1-8.74,8.74M32.25,22A5.26,5.26,0,0,0,27,27.22V51.69a5.26,5.26,0,0,0,5.25,5.25H78.71A5.25,5.25,0,0,0,84,51.69V27.22A5.25,5.25,0,0,0,78.71,22Z"/><path class="cls-1" d="M74,37.84H32a1.75,1.75,0,1,1,0-3.49H74a1.75,1.75,0,1,1,0,3.49"/><path class="cls-1" d="M52.12,46.24H32a1.75,1.75,0,0,1,0-3.5H52.12a1.75,1.75,0,0,1,0,3.5"/></g></g></svg>