<svg xmlns="http://www.w3.org/2000/svg" viewBox="0 0 77.51 67.52"><defs><style>.cls-1{fill:#fff;}</style></defs><title>アセット 8</title><g id="レイヤー_2" data-name="レイヤー 2"><g id="レイヤー_1-2" data-name="レイヤー 1"><path class="cls-1" d="M37.76,35.28A17.64,17.64,0,1,1,55.39,17.64,17.66,17.66,0,0,1,37.76,35.28m0-32.18A14.54,14.54,0,1,0,52.29,17.64,14.56,14.56,0,0,0,37.76,3.1"/><path class="cls-1" d="M76,67.52A1.55,1.55,0,0,1,74.41,66c0-18.15-13.07-21.71-35.65-21.71S3.1,47.82,3.1,66A1.55,1.55,0,0,1,0,66C0,43.08,20,41.16,38.76,41.16S77.51,43.08,77.51,66A1.54,1.54,0,0,1,76,67.52"/></g></g></svg>