<!--?xml version="1.0" encoding="utf-8"?-->
<!-- Generator: Adobe Illustrator 21.1.0, SVG Export Plug-In . SVG Version: 6.00 Build 0)  -->
<svg version="1.1" id="_x31_0" xmlns="http://www.w3.org/2000/svg" xmlns:xlink="http://www.w3.org/1999/xlink" x="0px" y="0px" viewBox="0 0 512 512" style="width: 256px; height: 256px; opacity: 1;" xml:space="preserve">
<style type="text/css">
	.st0{fill:#fff;}
</style>
<g>
	<path class="st0" d="M120.742,287.789l5.359-15.793h25l5.266,15.793h28.297l-36.102-98.699h-20.203l-26.707,73.41l-9.199,25.207
		h0.028l-0.028,0.082H120.742z M149.766,252.629h-16.774l-5.378-0.027l11.27-32.496l8.285,24.703L149.766,252.629z" style="fill: rgb(75, 75, 75);"></path>
	<path class="st0" d="M253.75,284.214c5.078-2.441,9.492-6.297,13.164-11.469c0.258-0.39,0.386-0.835,0.629-1.226
		c0.941-1.539,1.746-3.106,2.418-4.722c0.176-0.414,0.457-0.77,0.618-1.195c0.144-0.383,0.172-0.867,0.305-1.262
		c0.57-1.692,1.015-3.516,1.335-5.465c0.082-0.477,0.27-0.867,0.336-1.356c0.375-2.629,0.562-5.641,0.657-8.836
		c0.094-3.102,0.094-6.484,0.094-10.246c0-3.762,0-7.145-0.094-10.246c-0.094-3.195-0.282-6.11-0.657-8.836
		c-0.066-0.488-0.254-0.878-0.332-1.355c-0.324-1.95-0.77-3.778-1.339-5.473c-0.133-0.394-0.161-0.879-0.305-1.258
		c-0.946-2.446-2.164-4.887-3.758-7.145c-3.578-5.168-7.992-9.023-13.07-11.375c-4.977-2.441-10.906-3.66-17.672-3.66h-36.946
		v98.699h36.946C242.844,287.789,248.774,286.562,253.75,284.214z M221.226,267.574V209.39h13.352
		c5.726,0,10.054,1.786,12.969,5.453c0.851,1.032,1.507,2.161,1.969,3.383c0.476,1.317,0.851,2.82,1.038,4.606
		c0.282,1.789,0.469,3.949,0.562,6.488c0.094,2.629,0.094,5.641,0.094,9.118c0,3.476,0,6.578-0.094,9.117
		c-0.094,2.539-0.281,4.699-0.562,6.485c-0.187,1.785-0.562,3.293-1.038,4.609c-0.462,1.223-1.118,2.348-1.969,3.383
		c-2.914,3.668-7.242,5.543-12.969,5.543H221.23H221.226z" style="fill: rgb(75, 75, 75);"></path>
	<polygon class="st0" points="420.914,330.996 93.207,330.996 91.195,330.996 91.195,330.996 91.117,330.996 91.117,375.77 
		420.914,375.77 	" style="fill: rgb(75, 75, 75);"></polygon>
	<path class="st0" d="M501.164,24.16H10.836C4.898,24.16,0,28.996,0,34.996v46.422v44.223v350.117
		c0,6.734,5.414,12.082,12.078,12.082h487.836c6.664,0,12.086-5.348,12.086-12.082V125.641V81.418V34.996
		C512,28.996,507.164,24.16,501.164,24.16z M51.25,426.332V139.11c0-3.559,2.882-6.442,6.441-6.442h396.61
		c3.558,0,6.442,2.882,6.442,6.442v287.222c0,5.66-4.59,10.254-10.254,10.254H61.504C55.84,436.586,51.25,431.992,51.25,426.332z
		 M458.992,60.477v13.839h-43.125V60.477h42.938H458.992z M458.992,89.324v13.836h-43.125V89.324h42.938H458.992z" style="fill: rgb(75, 75, 75);"></path>
	<rect x="297.242" y="189.965" class="st0" width="123.672" height="14.645" style="fill: rgb(75, 75, 75);"></rect>
	<polygon class="st0" points="420.914,223.797 298.078,223.797 297.324,223.793 297.324,223.797 297.242,223.797 297.242,238.438 
		420.914,238.438 	" style="fill: rgb(75, 75, 75);"></polygon>
	<polygon class="st0" points="369.656,257.629 297.766,257.629 297.324,257.629 297.324,257.629 297.242,257.629 297.242,272.274 
		369.656,272.274 	" style="fill: rgb(75, 75, 75);"></polygon>
</g>
</svg>
