<svg xmlns="http://www.w3.org/2000/svg" viewBox="0 0 39.69 73.03"><defs><style>.cls-1{fill:#fff;}</style></defs><title>アセット 2</title><g id="レイヤー_2" data-name="レイヤー 2"><g id="レイヤー_1-2" data-name="レイヤー 1"><path class="cls-1" d="M36.21,65.5a4,4,0,0,1-.39.59,8.9,8.9,0,0,1-3.11,2.44,11,11,0,0,1-4.91,1.16,11.84,11.84,0,0,1-6.89-2.3,14.77,14.77,0,0,1-4.36-4.26,13.22,13.22,0,0,1-1.41-3.44c-.22-.76-.42-1.61-.65-2.56-.36-1.5-.78-3.26-1.42-5.33A68.66,68.66,0,0,0,7.62,39.19,36.59,36.59,0,0,1,3.34,22.65a22.69,22.69,0,0,1,1.11-7.28,16.23,16.23,0,0,1,3.7-6.16A18.22,18.22,0,0,1,21.41,3.34a17.32,17.32,0,0,1,8.86,2.43,13.53,13.53,0,0,1,5.2,5.44l3.08-1.28a16.62,16.62,0,0,0-6.55-7A20.62,20.62,0,0,0,21.35,0,21.62,21.62,0,0,0,5.74,6.9a19.55,19.55,0,0,0-4.45,7.41A25.82,25.82,0,0,0,0,22.65,39.51,39.51,0,0,0,4.69,40.78,66.91,66.91,0,0,1,9.54,51.72c.72,2.16,1.18,4,1.6,5.73l.16.67a25,25,0,0,0,2,6.06,13.8,13.8,0,0,0,2.19,3A22.49,22.49,0,0,0,19,70.13,15.32,15.32,0,0,0,27.76,73h0a14.3,14.3,0,0,0,8.29-2.65,10.67,10.67,0,0,0,2.57-2.53,5.8,5.8,0,0,0,1-2.34Z"/><path class="cls-1" d="M27.55,36.69a8.56,8.56,0,0,0-1.59.15,6.62,6.62,0,0,0-4.1,2.59,8.86,8.86,0,0,0-1.59,5.28,14,14,0,0,0,.5,3.57,11.08,11.08,0,0,0,2.9,5.2,6.76,6.76,0,0,0,4.67,2h0a7.26,7.26,0,0,0,5-2.19,7.44,7.44,0,0,0,1.89-3.38,15.86,15.86,0,0,0,.48-4.16,50.44,50.44,0,0,0-.85-8.07c-.26-1.56-.55-3.14-.89-4.94-.23-1.23-.46-2.45-.66-3.64a24.68,24.68,0,0,0-3.07-8.87A10.23,10.23,0,0,0,27,16.88a9.28,9.28,0,0,0-4.87-1.32h-.42a7.69,7.69,0,0,0-5.43,2.27,8.64,8.64,0,0,0-2.22,4.92,1.54,1.54,0,0,0,.31,1.18,1.72,1.72,0,0,0,1.28.64,1.61,1.61,0,0,0,1.58-1.38,5.52,5.52,0,0,1,1.36-3.15,4.54,4.54,0,0,1,3.25-1.28h.3a6,6,0,0,1,3.19.85,8.54,8.54,0,0,1,3.16,4,25.59,25.59,0,0,1,1.72,6c.22,1.27.45,2.55.69,3.83l.79,4.37-.31-.17a8.15,8.15,0,0,0-3.83-1M32.19,49a4.07,4.07,0,0,1-1,1.93,4.12,4.12,0,0,1-2.8,1.3,3.68,3.68,0,0,1-2.49-1.1,7.7,7.7,0,0,1-2-3.71,10.64,10.64,0,0,1-.39-2.74,5.61,5.61,0,0,1,1-3.37A3.39,3.39,0,0,1,26.56,40a5.52,5.52,0,0,1,1-.09,4.79,4.79,0,0,1,3.23,1.22,5.7,5.7,0,0,1,1.74,3.69l0,.92A12.39,12.39,0,0,1,32.19,49"/></g></g></svg>