<svg xmlns="http://www.w3.org/2000/svg" viewBox="0 0 70.72 70.9"><defs><style>.cls-1{fill:#fff;}</style></defs><title>アセット 4</title><g id="レイヤー_2" data-name="レイヤー 2"><g id="レイヤー_1-2" data-name="レイヤー 1"><path class="cls-1" d="M4.06,70.9A4,4,0,0,1,.69,69.2a4.88,4.88,0,0,1-.17-4.77l6.2-15.37a27.25,27.25,0,0,1,5.18-7.82L51.16,2A7.22,7.22,0,0,1,61.1,2l7.56,7.56a7,7,0,0,1,0,9.94L29.41,58.75A28.28,28.28,0,0,1,21.64,64L6.52,70.35a6.29,6.29,0,0,1-2.46.55M56.12,2.76A4.11,4.11,0,0,0,53.17,4L13.9,43.24a24.84,24.84,0,0,0-4.56,6.88L3.14,65.49A2.32,2.32,0,0,0,3,67.61c.37.55,1.26.61,2.39.14l15.12-6.39a25.67,25.67,0,0,0,6.87-4.62L66.66,17.48a4.12,4.12,0,0,0,1.23-3,4.17,4.17,0,0,0-1.24-3L59.1,4a4.19,4.19,0,0,0-3-1.23"/><path class="cls-1" d="M58.55,26.39a1.41,1.41,0,0,1-1-.42L43.68,12.11a1.42,1.42,0,0,1,2-2L59.55,24a1.42,1.42,0,0,1,0,2,1.39,1.39,0,0,1-1,.42"/></g></g></svg>