<svg xmlns="http://www.w3.org/2000/svg" viewBox="0 0 89.55 63.67"><defs><style>.cls-1{fill:#fff;}</style></defs><title>アセット 6</title><g id="レイヤー_2" data-name="レイヤー 2"><g id="レイヤー_1-2" data-name="レイヤー 1"><path class="cls-1" d="M75,63.67H14.54A14.56,14.56,0,0,1,0,49.13V14.54A14.55,14.55,0,0,1,14.54,0H75A14.55,14.55,0,0,1,89.55,14.54V49.13A14.56,14.56,0,0,1,75,63.67M14.54,3.29A11.26,11.26,0,0,0,3.29,14.54V49.13A11.26,11.26,0,0,0,14.54,60.38H75A11.26,11.26,0,0,0,86.26,49.13V14.54A11.26,11.26,0,0,0,75,3.29ZM36.15,48.07a1.56,1.56,0,0,1-.78-.2,1.63,1.63,0,0,1-.86-1.44V13.94a1.65,1.65,0,0,1,2.55-1.37L61.69,28.81a1.64,1.64,0,0,1,0,2.74L37.06,47.8a1.67,1.67,0,0,1-.91.27M37.8,17V43.37l20-13.19Z"/></g></g></svg>