<svg xmlns="http://www.w3.org/2000/svg" viewBox="0 0 57.33 68.3"><defs><style>.cls-1{fill:#fff;}</style></defs><title>アセット 3</title><g id="レイヤー_2" data-name="レイヤー 2"><g id="レイヤー_1-2" data-name="レイヤー 1"><path class="cls-1" d="M40.4,52.86H16.92a1.36,1.36,0,0,1,0-2.71H40.4a1.36,1.36,0,1,1,0,2.71"/><path class="cls-1" d="M47.64,41.29h-38a1.36,1.36,0,1,1,0-2.71h38a1.36,1.36,0,1,1,0,2.71"/><path class="cls-1" d="M47.64,18.15h-38a1.36,1.36,0,1,1,0-2.71h38a1.36,1.36,0,1,1,0,2.71"/><path class="cls-1" d="M40.4,29.72H16.92a1.36,1.36,0,0,1,0-2.71H40.4a1.36,1.36,0,1,1,0,2.71"/><path class="cls-1" d="M52.68,68.3h-48A4.64,4.64,0,0,1,0,63.66v-59A4.64,4.64,0,0,1,4.64,0h48a4.65,4.65,0,0,1,4.65,4.64v59a4.65,4.65,0,0,1-4.65,4.64M4.64,2.71A1.94,1.94,0,0,0,2.71,4.64v59a1.93,1.93,0,0,0,1.93,1.92h48a1.92,1.92,0,0,0,1.93-1.92v-59a1.93,1.93,0,0,0-1.93-1.93Z"/></g></g></svg>