<svg
 xmlns="http://www.w3.org/2000/svg"
 xmlns:xlink="http://www.w3.org/1999/xlink"
 width="144px" height="70px">
<path fill-rule="evenodd"  fill="rgb(31, 46, 85)"
 d="M139.455,69.779 L139.455,58.411 C139.455,56.884 138.200,55.648 136.653,55.648 L136.652,55.648 C135.105,55.648 133.850,56.884 133.850,58.411 L133.850,69.779 L129.306,69.779 L129.306,60.472 L129.306,51.954 L133.850,51.954 L133.850,53.014 C135.073,52.360 136.453,51.954 137.942,51.954 C141.288,51.954 144.000,54.629 144.000,57.928 L144.000,69.779 L139.455,69.779 ZM117.651,69.944 L115.497,69.944 C111.989,69.944 109.145,67.140 109.145,63.681 L109.145,58.217 C109.145,54.758 111.989,51.954 115.497,51.954 L117.651,51.954 C121.159,51.954 124.002,54.758 124.002,58.217 L124.002,63.681 C124.002,67.140 121.159,69.944 117.651,69.944 ZM119.589,58.621 C119.589,56.979 118.239,55.648 116.574,55.648 C114.908,55.648 113.558,56.979 113.558,58.621 L113.558,62.935 C113.558,64.578 114.908,65.909 116.574,65.909 C118.239,65.909 119.589,64.578 119.589,62.935 L119.589,58.621 ZM101.956,49.601 C100.471,49.601 99.267,48.414 99.267,46.950 C99.267,45.484 100.471,44.297 101.956,44.297 C103.441,44.297 104.645,45.484 104.645,46.950 C104.645,48.414 103.441,49.601 101.956,49.601 ZM91.845,56.479 C91.079,56.058 90.217,55.837 89.340,55.837 L86.752,55.837 C85.879,55.837 85.171,56.535 85.171,57.397 C85.171,58.217 85.813,58.895 86.642,58.952 L90.314,59.058 C94.139,59.045 95.225,62.533 95.192,63.551 L95.192,64.850 C95.192,67.586 91.969,69.708 89.971,69.708 L86.456,69.705 C85.041,69.704 83.649,69.349 82.411,68.671 L79.757,67.219 L82.698,64.182 L84.407,65.120 C85.173,65.540 86.035,65.761 86.912,65.761 L89.203,65.799 C90.049,65.813 90.796,65.177 90.829,64.342 C90.829,64.337 90.829,64.332 90.829,64.327 C90.859,63.397 90.102,62.629 89.159,62.633 L86.003,62.646 C83.339,62.506 81.060,60.680 81.060,58.048 L81.060,56.747 C81.060,54.012 84.282,51.890 86.281,51.890 L89.796,51.893 C91.211,51.894 92.603,52.250 93.841,52.927 L95.344,53.749 L92.404,56.785 L91.845,56.479 ZM80.568,27.506 L80.568,15.101 L84.958,19.322 L84.958,-0.007 L92.510,-0.007 L92.510,31.006 L84.407,31.006 L80.568,27.506 ZM73.606,49.601 C72.120,49.601 70.917,48.414 70.917,46.950 C70.917,45.484 72.120,44.297 73.606,44.297 C75.091,44.297 76.295,45.484 76.295,46.950 C76.295,48.414 75.091,49.601 73.606,49.601 ZM68.615,31.006 L61.062,31.006 L61.062,-0.007 L69.560,-0.007 L73.005,3.028 L73.005,15.486 L68.615,11.298 L68.615,31.006 ZM66.631,51.663 L61.366,70.007 L54.941,70.007 L49.676,51.663 L54.575,51.663 L58.153,64.130 L61.732,51.663 L66.631,51.663 ZM45.453,62.110 L35.690,62.110 L35.690,62.279 C35.690,64.363 37.402,66.051 39.515,66.051 L40.846,66.051 C42.168,65.882 43.187,65.235 43.948,64.468 L46.381,66.866 C45.619,68.537 43.924,69.705 41.946,69.705 L38.350,69.705 C34.554,69.705 31.476,66.670 31.476,62.926 L31.476,58.760 C31.476,54.800 34.731,51.591 38.745,51.591 L39.695,51.591 C43.627,51.591 46.815,54.734 46.815,58.612 L46.815,62.110 L46.356,62.110 L45.453,62.110 ZM42.601,58.302 C42.601,56.544 41.157,55.119 39.374,55.119 C37.339,55.119 35.690,56.746 35.690,58.752 L35.690,59.185 L42.601,59.185 L42.601,58.302 ZM22.935,69.705 L18.097,59.854 L14.686,59.854 L14.686,69.705 L9.573,69.705 L9.573,45.303 L12.603,45.303 L14.686,45.303 L20.138,45.303 C24.213,45.303 27.516,48.561 27.516,52.579 C27.516,55.438 25.828,57.887 23.395,59.075 L28.616,69.705 L22.935,69.705 ZM19.128,49.350 L14.686,49.350 L14.686,55.808 L19.128,55.808 C20.937,55.808 22.403,54.361 22.403,52.579 C22.403,50.795 20.937,49.350 19.128,49.350 ZM0.000,44.822 L4.084,41.646 L4.787,41.646 L4.787,49.350 L0.000,49.350 L0.000,44.822 ZM75.812,70.007 L71.399,70.007 L71.399,51.768 L75.812,51.768 L75.812,70.007 ZM104.163,70.007 L99.749,70.007 L99.749,51.768 L104.163,51.768 L104.163,70.007 Z"/>
</svg>
