<svg xmlns="http://www.w3.org/2000/svg" viewBox="0 0 197.97 31"><defs><style>.cls-1{fill:#fff;fill-rule:evenodd;}</style></defs><title>アセット 1</title><g id="レイヤー_2" data-name="レイヤー 2"><g id="レイヤー_1-2" data-name="レイヤー 1"><path class="cls-1" d="M193,18.14a3.07,3.07,0,0,0-3.09-3.07h0a3.07,3.07,0,0,0-3.09,3.07V30.75h-5V11h5v1.18A9.44,9.44,0,0,1,191.29,11,6.66,6.66,0,0,1,198,17.6V30.75h-5Zm-24,12.79h-2.38a7,7,0,0,1-7-6.95V17.92a7,7,0,0,1,7-7h2.38a7,7,0,0,1,7,7V24A7,7,0,0,1,168.92,30.93Zm2.13-12.56a3.32,3.32,0,0,0-6.64,0v4.79a3.32,3.32,0,0,0,6.64,0Zm-19.44-10a2.94,2.94,0,1,1,3-2.94A3,3,0,0,1,151.61,8.36ZM140.46,16a5.64,5.64,0,0,0-2.76-.71h-2.85a1.73,1.73,0,0,0-.12,3.46l4,.11a5.3,5.3,0,0,1,5.38,5v1.44c0,3-3.55,5.39-5.75,5.39h-3.88a9.4,9.4,0,0,1-4.46-1.15l-2.93-1.61,3.25-3.37,1.88,1a5.81,5.81,0,0,0,2.76.71l2.53,0a1.73,1.73,0,0,0,1.79-1.61v0a1.82,1.82,0,0,0-1.84-1.88H134c-2.94-.15-5.45-2.18-5.45-5.1V16.29c0-3,3.55-5.39,5.76-5.39h3.87a9.26,9.26,0,0,1,4.46,1.15l1.66.91-3.24,3.37ZM120.35,8.36a2.94,2.94,0,1,1,3-2.94A2.95,2.95,0,0,1,120.35,8.36ZM99.77,31,94,10.65h5.41l3.94,13.83,4-13.83h5.4L106.86,31ZM89.31,22.24H78.54v.19a4.2,4.2,0,0,0,4.22,4.18h1.47a5.76,5.76,0,0,0,3.42-1.76l2.68,2.66a5.35,5.35,0,0,1-4.89,3.15h-4a7.54,7.54,0,0,1-7.58-7.52V18.52a8,8,0,0,1,8-7.95h1a7.83,7.83,0,0,1,7.85,7.79v3.88h-1.5ZM86.16,18a3.54,3.54,0,0,0-3.55-3.53,4.05,4.05,0,0,0-4.07,4V19h7.62ZM64.48,30.66,59.14,19.74H55.38V30.66H49.75V3.59H61.4A8,8,0,0,1,65,18.87l5.75,11.79ZM60.28,8.08h-4.9v7.17h4.9a3.59,3.59,0,1,0,0-7.17ZM39.19,3.52,43.69,0h.78V8.55H39.19ZM17,27.6V16.75l3.82,3.69V3.53h6.56V30.66h-7ZM6.57,30.66H0V3.53H7.39l3,2.66v10.9L6.57,13.42ZM122.78,31h-4.86V10.77h4.86ZM154,31h-4.86V10.77H154Z"/></g></g></svg>