<svg
 xmlns="http://www.w3.org/2000/svg"
 xmlns:xlink="http://www.w3.org/1999/xlink"
 width="300px" height="31px">
<path fill-rule="evenodd"  fill="rgb(255, 255, 255)"
 d="M297.778,27.676 C296.295,29.713 294.197,30.746 291.542,30.746 C289.876,30.746 288.516,30.411 287.498,29.750 C287.119,29.505 286.737,29.163 286.328,28.705 L285.757,28.065 L285.757,30.222 L280.382,30.222 L280.382,3.365 L285.830,3.365 L285.830,12.515 L286.393,11.921 C286.841,11.450 287.320,11.058 287.815,10.757 C288.774,10.143 290.003,9.834 291.476,9.834 C294.132,9.834 296.241,10.794 297.745,12.685 C299.241,14.566 300.000,17.025 300.000,19.992 C300.000,23.065 299.253,25.651 297.778,27.676 ZM293.755,17.112 C293.082,15.439 291.824,14.590 290.018,14.590 C288.186,14.590 286.910,15.421 286.225,17.060 C285.866,17.943 285.684,19.105 285.684,20.516 C285.684,22.170 286.060,23.556 286.801,24.637 C287.541,25.718 288.642,26.244 290.165,26.244 C291.479,26.244 292.471,25.736 293.199,24.691 C293.927,23.645 294.297,22.247 294.297,20.534 C294.297,19.159 294.114,18.008 293.755,17.112 ZM273.904,21.674 L259.446,21.674 L259.481,22.029 C259.645,23.715 260.293,24.881 261.462,25.595 C262.230,26.073 263.171,26.317 264.256,26.317 C265.403,26.317 266.346,26.022 267.057,25.441 C267.445,25.129 267.794,24.685 268.094,24.125 L268.130,24.057 L273.651,24.057 L273.634,24.200 C273.492,25.391 272.833,26.613 271.676,27.833 C269.880,29.767 267.336,30.746 264.113,30.746 C261.454,30.746 259.074,29.922 257.040,28.294 C254.998,26.661 253.963,23.974 253.963,20.309 C253.963,16.877 254.895,14.205 256.735,12.369 C258.575,10.532 260.994,9.601 263.925,9.601 C265.663,9.601 267.252,9.915 268.647,10.534 C270.047,11.157 271.219,12.152 272.131,13.493 C272.952,14.675 273.490,16.061 273.734,17.618 C273.874,18.526 273.932,19.849 273.906,21.548 L273.904,21.674 ZM268.206,17.651 C268.047,16.560 267.627,15.737 266.922,15.134 C266.111,14.440 265.131,14.102 263.927,14.102 C262.620,14.102 261.636,14.457 260.921,15.189 C260.317,15.807 259.897,16.627 259.673,17.627 L259.584,18.021 L268.260,18.021 L268.206,17.651 ZM237.518,30.746 L234.254,15.067 L233.754,12.348 L233.113,12.348 L232.613,15.065 L229.349,30.746 L223.937,30.746 L216.252,3.853 L222.481,3.853 L226.048,19.207 L226.378,21.026 L227.020,21.028 L227.342,19.299 L230.395,3.853 L236.525,3.853 L239.736,19.207 L240.119,21.197 L240.759,21.199 L241.130,19.374 L244.732,3.853 L250.716,3.853 L243.091,30.746 L237.518,30.746 ZM192.960,18.135 C192.960,16.441 191.577,15.069 189.870,15.069 L189.870,15.069 C188.164,15.069 186.780,16.441 186.780,18.135 L186.780,30.746 L181.769,30.746 L181.769,20.421 L181.769,10.972 L186.780,10.972 L186.780,12.148 C188.129,11.421 189.650,10.972 191.292,10.972 C194.981,10.972 197.971,13.939 197.971,17.599 L197.971,30.746 L192.960,30.746 L192.960,18.135 ZM168.918,30.930 L166.543,30.930 C162.675,30.930 159.539,27.818 159.539,23.981 L159.539,17.920 C159.539,14.082 162.675,10.972 166.543,10.972 L168.918,10.972 C172.786,10.972 175.922,14.082 175.922,17.920 L175.922,23.981 C175.922,27.818 172.786,30.930 168.918,30.930 ZM171.055,18.368 C171.055,16.546 169.567,15.069 167.730,15.069 C165.894,15.069 164.406,16.546 164.406,18.368 L164.406,23.155 C164.406,24.977 165.894,26.454 167.730,26.454 C169.567,26.454 171.055,24.977 171.055,23.155 L171.055,18.368 ZM151.612,8.361 C149.975,8.361 148.647,7.044 148.647,5.419 C148.647,3.794 149.975,2.477 151.612,2.477 C153.250,2.477 154.577,3.794 154.577,5.419 C154.577,7.044 153.250,8.361 151.612,8.361 ZM140.463,15.991 C139.618,15.525 138.667,15.280 137.701,15.280 L134.847,15.280 C133.884,15.280 133.104,16.054 133.104,17.010 C133.104,17.919 133.812,18.673 134.725,18.736 L138.775,18.852 C142.992,18.839 144.190,22.707 144.154,23.836 L144.154,25.279 C144.154,28.314 140.600,30.668 138.396,30.668 L134.521,30.665 C132.960,30.664 131.425,30.269 130.060,29.518 L127.134,27.907 L130.377,24.537 L132.261,25.578 C133.106,26.044 134.057,26.289 135.024,26.289 L137.550,26.331 C138.483,26.347 139.306,25.640 139.342,24.715 C139.343,24.709 139.343,24.704 139.343,24.697 C139.376,23.667 138.541,22.814 137.501,22.818 L134.022,22.832 C131.083,22.677 128.571,20.652 128.571,17.732 L128.571,16.290 C128.571,13.254 132.124,10.900 134.328,10.900 L138.203,10.903 C139.764,10.904 141.299,11.300 142.664,12.051 L144.321,12.963 L141.079,16.331 L140.463,15.991 ZM120.351,8.361 C118.714,8.361 117.386,7.044 117.386,5.419 C117.386,3.794 118.714,2.477 120.351,2.477 C121.989,2.477 123.316,3.794 123.316,5.419 C123.316,7.044 121.989,8.361 120.351,8.361 ZM99.770,30.999 L93.965,10.649 L99.367,10.649 L103.313,24.479 L107.259,10.649 L112.661,10.649 L106.855,30.999 L99.770,30.999 ZM89.309,22.239 L78.543,22.239 L78.543,22.426 C78.543,24.738 80.432,26.611 82.762,26.611 L84.229,26.611 C85.686,26.423 86.810,25.707 87.650,24.854 L90.331,27.515 C89.491,29.369 87.622,30.664 85.441,30.664 L81.477,30.664 C77.291,30.664 73.897,27.298 73.897,23.143 L73.897,18.521 C73.897,14.130 77.486,10.568 81.912,10.568 L82.959,10.568 C87.295,10.568 90.810,14.056 90.810,18.358 L90.810,22.239 L90.304,22.239 L89.309,22.239 ZM86.164,18.014 C86.164,16.064 84.571,14.483 82.606,14.483 C80.362,14.483 78.543,16.287 78.543,18.514 L78.543,18.994 L86.164,18.994 L86.164,18.014 ZM64.479,30.664 L59.144,19.736 L55.383,19.736 L55.383,30.664 L49.746,30.664 L49.746,3.593 L53.087,3.593 L55.383,3.593 L61.395,3.593 C65.888,3.593 69.530,7.207 69.530,11.664 C69.530,14.837 67.669,17.554 64.987,18.873 L70.743,30.664 L64.479,30.664 ZM60.282,8.082 L55.383,8.082 L55.383,15.247 L60.282,15.247 C62.276,15.247 63.892,13.643 63.892,11.664 C63.892,9.686 62.276,8.082 60.282,8.082 ZM39.190,3.524 L43.693,0.000 L44.468,0.000 L44.468,8.547 L39.190,8.547 L39.190,3.524 ZM16.961,27.602 L16.961,16.750 L20.778,20.442 L20.778,3.532 L27.345,3.532 L27.345,30.664 L20.299,30.664 L16.961,27.602 ZM6.568,30.664 L0.000,30.664 L0.000,3.532 L7.389,3.532 L10.385,6.187 L10.385,17.087 L6.568,13.422 L6.568,30.664 ZM122.784,30.999 L117.918,30.999 L117.918,10.765 L122.784,10.765 L122.784,30.999 ZM154.045,30.999 L149.179,30.999 L149.179,10.765 L154.045,10.765 L154.045,30.999 Z"/>
</svg>
